
<svg width="95px" height="20px" viewBox="0 0 501 105" version="1.1" xmlns="http://www.w3.org/2000/svg" xmlns:xlink="http://www.w3.org/1999/xlink">
    <g id="Page-1" stroke="none" stroke-width="1" fill="none" fill-rule="evenodd" stroke-linecap="round" stroke-linejoin="round" stroke-opacity="0">
        <g id="logo-white" transform="translate(0.000000, -114.000000)" fill="#FFFFFF" fill-rule="nonzero" stroke="#000000" stroke-width="6812.58278">
            <path d="M41.6865382,191.772724 C49.6634293,191.772724 56.8033259,190.093014 63.1044733,186.782788 C69.3810548,183.447965 74.3170413,178.842816 77.8861123,172.965585 C81.4551832,167.063755 83.2291905,160.371267 83.2291905,152.886362 C83.2291905,145.401458 81.4551832,138.708969 77.8861123,132.80714 C74.3170413,126.907067 69.3810548,122.300162 63.1044733,118.989936 C56.8033259,115.655113 49.6634293,114 41.6865382,114 C33.7078923,114 26.5451845,115.655113 20.2194713,118.989936 C13.8709468,122.300162 8.91214915,126.907067 5.34307819,132.80714 C1.77225254,138.708969 0,145.401458 0,152.886362 C0,160.371267 1.79681841,167.063755 5.34307819,172.965585 C8.91214915,178.842816 13.8709468,183.447965 20.2194713,186.782788 C26.5451845,190.093014 33.7078923,191.772724 41.6865382,191.772724 Z M41.6865382,173.803683 C36.0556883,173.803683 31.4074734,171.909616 27.7436484,168.119724 C24.0780686,164.329832 22.2566843,159.24326 22.2566843,152.886362 C22.2566843,146.529465 24.0780686,141.442892 27.7436484,137.653001 C31.4074734,133.863109 36.0556883,131.969042 41.6865382,131.969042 C47.3156333,131.969042 51.9392823,133.863109 55.557485,137.653001 C59.1756877,141.442892 60.9953173,146.529465 60.9953173,152.886362 C60.9953173,159.24326 59.1756877,164.329832 55.557485,168.119724 C51.9392823,171.909616 47.3156333,173.803683 41.6865382,173.803683 Z M194.917949,114 C189.288854,114 184.114227,115.080567 179.369504,117.239945 C174.770421,119.278087 170.720561,122.396798 167.607713,126.355363 C165.044088,122.396798 161.425886,119.20605 157.184762,117.167907 C152.848885,115.055969 148.033973,114 142.666329,114 C137.779474,114 133.299711,114.839855 129.22704,116.544165 C125.249123,118.174679 121.704618,120.694245 118.877787,123.932433 L118.877787,115.224643 L97.9143206,115.224643 L97.9143206,190.788793 L119.763913,190.788793 L119.763913,153.00584 C119.763913,146.457427 121.369469,141.251377 124.362996,137.941152 C127.382845,134.606328 131.406384,132.951216 136.486257,132.951216 C146.045892,132.951216 150.908181,139.021719 150.908181,150.9185 L150.908181,190.788793 L172.782339,190.788793 L172.782339,153.00584 C172.782339,146.457427 174.314197,141.251377 177.30948,137.941152 C180.327573,134.606328 184.400244,132.951216 189.576626,132.951216 C194.175709,132.951216 197.721968,134.439411 200.21365,137.364849 C202.705332,140.316643 203.926607,144.921791 203.926607,150.9185 L203.926607,190.788793 L226.086783,190.788793 L226.086783,147.608275 C226.086783,136.477554 223.116066,127.91384 217.534348,122.349358 C211.95263,116.783119 204.405642,114 194.917949,114 Z M320.695238,153.174513 C320.695238,145.306579 318.994929,138.397977 315.567989,132.471549 C312.239312,126.643514 307.327892,121.892533 301.40927,118.773823 C295.395894,115.607673 288.687655,114 281.261742,114 C273.667376,114 266.790686,115.655113 260.633424,118.989936 C254.597237,122.180684 249.589308,127.001947 246.114991,132.879178 C242.593297,138.828447 240.84561,145.498094 240.84561,152.886362 C240.84561,160.371267 242.617863,167.063755 246.186934,172.965585 C249.75776,178.842816 254.835877,183.447965 261.40023,186.782788 C267.964584,190.093014 275.536138,191.772724 284.088572,191.772724 C297.792822,191.772724 308.214018,187.694682 315.35216,179.561437 L303.662312,166.919679 C301.218007,169.318011 298.319234,171.213836 295.132689,172.46132 C292.090029,173.636766 288.592901,174.213069 284.63955,174.213069 C278.913946,174.213069 274.121845,172.868948 270.265003,170.157867 C266.430971,167.423944 263.939289,163.082348 262.909277,158.403404 L320.119695,158.403404 C320.384655,156.604216 320.575918,154.996543 320.695238,153.174513 Z M281.405628,130.577482 C286.292482,130.577482 290.412531,131.991883 293.790339,134.84704 C297.169902,137.702197 299.301869,141.636164 300.044109,146.409987 L262.62326,146.409987 C263.365501,141.539528 265.497468,137.580963 268.875276,134.775002 C272.253084,131.969042 276.422264,130.577482 281.405628,130.577482 Z M392.113506,144.322648 C391.202814,141.539528 389.621824,139.04456 387.465291,137.101296 C383.752334,133.671594 378.9848,131.969042 373.162687,131.969042 C367.340574,131.969042 362.548473,133.671594 358.788139,137.101296 C355.050617,140.508158 353.15729,144.969231 353.15729,150.48803 C353.15729,156.005072 355.050617,160.490744 358.788139,163.897605 C362.548473,167.327308 367.340574,169.031617 373.162687,169.031617 C378.9848,169.031617 383.752334,167.327308 387.465291,163.897605 C389.405995,162.145857 390.890476,159.93904 391.825734,157.516109 L414.72815,157.516109 L414.705339,178.00296 C414.705339,191.844762 411.087136,202.135627 403.875297,208.875555 C396.640646,215.61724 386.075564,218.999503 372.180052,218.999503 C365.136664,219.024102 358.140653,218.13505 351.33766,216.335861 C344.748741,214.536673 339.310909,211.971424 334.997843,208.612002 L343.718729,192.876133 C346.905274,195.515177 350.953379,197.577918 355.841989,199.136394 C360.584958,200.647431 365.51919,201.439847 370.479742,201.439847 C378.096919,201.439847 383.703203,199.735538 387.321405,196.330434 C390.939608,192.898974 392.736426,187.742121 392.736426,180.808921 L392.736426,177.595332 C387.009068,183.855593 379.032177,186.998902 368.802244,186.998902 C361.855365,186.998902 355.482274,185.463266 349.707539,182.441192 C344.053878,179.489399 339.286343,175.051167 335.980478,169.583321 C332.60267,164.064522 330.900605,157.707625 330.900605,150.48803 C330.900605,143.291277 332.60267,136.934379 335.980478,131.41558 C339.286343,125.947735 344.053878,121.509503 349.707539,118.557709 C355.482274,115.535635 361.855365,114 368.802244,114 C379.774417,114 388.063646,117.622975 393.78925,124.819728 L393.78925,115.224643 L414.752716,115.224643 L414.72815,144.322648 L392.113506,144.322648 Z M464.488088,114 C458.474713,114 452.485903,114.792416 446.688356,116.400089 C440.91362,117.983164 435.954822,120.23742 431.810208,123.140017 L439.716911,138.420818 C442.424422,136.286039 445.753098,134.558889 449.634506,133.311405 C453.491349,132.039322 457.493832,131.41558 461.541938,131.41558 C467.364051,131.41558 471.724494,132.687663 474.646078,135.279267 C477.544852,137.846273 479.438179,141.636164 479.438179,146.409987 L461.469995,146.409987 C450.376747,146.409987 442.25597,148.304055 436.962023,152.334658 C431.666322,156.340663 429.007943,161.857705 429.007943,168.887542 C429.007943,173.276577 430.13271,177.210544 432.385752,180.664845 C434.637039,184.143744 437.895527,186.854826 442.184027,188.820931 C446.447961,190.788793 451.503268,191.772724 457.325381,191.772724 C468.585326,191.772724 476.204257,188.221787 480.324305,181.193708 L480.324305,190.788793 L501,190.788793 L501,147.608275 C501,136.382675 497.838021,127.91384 491.536873,122.349358 C485.235726,116.783119 476.227068,114 464.488088,114 Z M462.812345,177.019029 C458.953747,177.019029 455.935654,176.203772 453.731744,174.571501 C451.527834,172.940986 450.425879,170.709571 450.401313,167.90361 C450.401313,162.001781 455.144282,158.403404 464.15294,158.403404 L479.438179,158.403404 L479.438179,166.800202 C478.216904,170.157867 475.725222,172.700275 472.801883,174.427425 C469.903109,176.154575 466.572678,177.019029 462.812345,177.019029 Z" id="logo-new-copy"></path>
        </g>
    </g>
</svg>